<svg width="70" height="35" viewBox="0 0 70 35" fill="none" xmlns="http://www.w3.org/2000/svg">
<path d="M0.282435 28.3151V26.3906H0.638154V28.3151C0.638154 28.7704 0.819571 28.9625 1.24643 28.9625C1.6733 28.9625 1.8476 28.7704 1.8476 28.3151V26.3906H2.22466V28.3151C2.22466 28.966 1.91874 29.2755 1.24643 29.2755C0.574125 29.2755 0.264648 28.966 0.264648 28.3151" fill="#242424"/>
<path d="M3.27728 27.006H3.23459V29.2221H2.86108V26.3906H3.29506L4.4547 28.6068H4.50095V26.3906H4.87445V29.2221H4.44048L3.27728 27.006Z" fill="#242424"/>
<path d="M5.90646 26.3906H5.53296V29.2257H5.90646V26.3906Z" fill="#242424"/>
<path d="M8.13291 26.3906H8.5242L7.73807 29.2257H7.15113L6.36499 26.3906H6.75628L7.41436 28.8949H7.47128L8.13291 26.3906Z" fill="#242424"/>
<path d="M10.4774 27.9309H9.34262V28.9127H10.609V29.2257H8.96912V26.3906H10.5734V26.7037H9.34262V27.6285H10.4774V27.9309Z" fill="#242424"/>
<path d="M11.4983 29.2256H11.1426V26.3799H12.0888C12.7611 26.3799 13.0314 26.6182 13.0314 27.2941C13.0314 27.8454 12.8287 28.0944 12.3734 28.1514L13.0848 29.2185H12.6828L11.9999 28.2012H11.4983V29.2256ZM12.0781 27.9237C12.473 27.9237 12.6473 27.7601 12.6473 27.3119C12.6473 26.8601 12.473 26.6965 12.0781 26.6965H11.4983V27.9308L12.0781 27.9237Z" fill="#242424"/>
<path d="M14.9275 28.4643C14.9275 28.1086 14.803 28.0197 14.2481 27.9236C13.6931 27.8276 13.437 27.6462 13.437 27.1162C13.437 26.5933 13.6967 26.3585 14.3477 26.3585C14.6276 26.3563 14.9061 26.3983 15.1729 26.483L15.1302 26.7569C14.8922 26.6947 14.6471 26.6636 14.401 26.6644C13.967 26.6644 13.8105 26.7889 13.8105 27.1126C13.8105 27.4683 13.9635 27.5395 14.4721 27.6355C15.1302 27.7565 15.3045 27.945 15.3045 28.4643C15.3045 29.037 14.9488 29.2789 14.2694 29.2789C13.9936 29.2767 13.7194 29.236 13.4548 29.158L13.4975 28.8805C13.7361 28.9399 13.9808 28.9709 14.2267 28.973C14.714 28.973 14.9381 28.8521 14.9381 28.4679" fill="#242424"/>
<path d="M16.2007 26.3906H15.8271V29.2257H16.2007V26.3906Z" fill="#242424"/>
<path d="M16.8521 29.2256V26.3799H17.7022C18.5737 26.3799 18.837 26.7925 18.837 27.8028C18.837 28.8023 18.5737 29.2256 17.7022 29.2256H16.8521ZM17.7022 28.9126C18.2927 28.9126 18.4528 28.6102 18.4528 27.8099C18.4528 27.0095 18.2927 26.7107 17.7022 26.7107H17.2256V28.9197L17.7022 28.9126Z" fill="#242424"/>
<path d="M20.8041 28.521H19.737L19.5378 29.2325H19.1465L19.9789 26.3867H20.548L21.384 29.2325H20.9998L20.8041 28.521ZM19.8152 28.2151H20.7472L20.3061 26.6855H20.2492L19.8152 28.2151Z" fill="#242424"/>
<path d="M21.8176 29.2256V26.3799H22.6678C23.5393 26.3799 23.8025 26.7925 23.8025 27.8028C23.8025 28.8023 23.5393 29.2256 22.6678 29.2256H21.8176ZM22.6678 28.9126C23.2583 28.9126 23.4184 28.6102 23.4184 27.8099C23.4184 27.0095 23.2583 26.7107 22.6678 26.7107H22.1947V28.9197L22.6678 28.9126Z" fill="#242424"/>
<path d="M25.8511 27.9309H24.7164V28.9127H25.9792V29.2257H24.3429V26.3906H25.9472V26.7037H24.7164V27.6285H25.8511V27.9309Z" fill="#242424"/>
<path d="M27.5627 29.2256V26.3799H28.4129C29.2844 26.3799 29.5477 26.7925 29.5477 27.8028C29.5477 28.8023 29.2844 29.2256 28.4129 29.2256H27.5627ZM28.4129 28.9126C29.0034 28.9126 29.1635 28.6102 29.1635 27.8099C29.1635 27.0095 29.0034 26.7107 28.4129 26.7107H27.9398V28.9197L28.4129 28.9126Z" fill="#242424"/>
<path d="M32.1299 27.8028C32.1299 28.7953 31.9272 29.2684 31.0628 29.2684C30.1984 29.2684 29.9956 28.7953 29.9956 27.8028C29.9956 26.8104 30.1984 26.3408 31.0628 26.3408C31.9272 26.3408 32.1299 26.8104 32.1299 27.8028ZM31.7457 27.8028C31.7457 27.0131 31.6426 26.6432 31.0557 26.6432C30.4687 26.6432 30.3656 26.9989 30.3656 27.8028C30.3656 28.5961 30.4723 28.9625 31.0557 28.9625C31.639 28.9625 31.7457 28.6067 31.7457 27.8028Z" fill="#242424"/>
<path d="M35.1073 28.4643C35.1073 28.1086 34.9828 28.0197 34.4314 27.9236C33.88 27.8276 33.6204 27.6462 33.6204 27.1162C33.6204 26.5933 33.8765 26.3585 34.531 26.3585C34.8098 26.3562 35.0871 26.3982 35.3527 26.483L35.3136 26.7569C35.0755 26.6947 34.8304 26.6636 34.5844 26.6644C34.1468 26.6644 33.9939 26.7889 33.9939 27.1126C33.9939 27.4683 34.1433 27.5395 34.6555 27.6355C35.3136 27.7565 35.4879 27.945 35.4879 28.4643C35.4879 29.037 35.15 29.2789 34.4527 29.2789C34.1769 29.277 33.9027 29.2363 33.6381 29.158L33.6773 28.8805C33.9172 28.9395 34.163 28.9706 34.4101 28.973C34.8974 28.973 35.1215 28.8521 35.1215 28.4679" fill="#242424"/>
<path d="M37.5085 27.9309H36.3738V28.9127H37.6366V29.2257H35.9967V26.3906H37.6046V26.7037H36.3738V27.6285H37.5085V27.9309Z" fill="#242424"/>
<path d="M39.8918 26.3906V26.7037H39.1021V29.2257H38.725V26.7037H37.9318V26.3906H39.8918Z" fill="#242424"/>
<path d="M42.2752 27.8028C42.2752 28.7953 42.0724 29.2684 41.208 29.2684C40.3436 29.2684 40.1409 28.7953 40.1409 27.8028C40.1409 26.8104 40.3436 26.3408 41.208 26.3408C42.0724 26.3408 42.2752 26.8104 42.2752 27.8028ZM41.891 27.8028C41.891 27.0131 41.7878 26.6432 41.2009 26.6432C40.614 26.6432 40.5108 26.9989 40.5108 27.8028C40.5108 28.5961 40.6175 28.9625 41.2009 28.9625C41.7843 28.9625 41.891 28.6067 41.891 27.8028Z" fill="#242424"/>
<path d="M43.1895 29.2256H42.8337V26.3799H43.7657C44.438 26.3799 44.7084 26.6182 44.7084 27.2941C44.7084 27.8454 44.5056 28.0944 44.0503 28.1514L44.7617 29.2185H44.3633L43.6768 28.2012H43.1752L43.1895 29.2256ZM43.7657 27.9308C44.1606 27.9308 44.3349 27.7672 44.3349 27.319C44.3349 26.8672 44.1606 26.7036 43.7657 26.7036H43.1859V27.9308H43.7657Z" fill="#242424"/>
<path d="M0.296753 34.2276V31.3818H1.14692C2.01843 31.3818 2.28166 31.7945 2.28166 32.8047C2.28166 33.8043 2.01843 34.2276 1.14692 34.2276H0.296753ZM1.14692 33.9146C1.73741 33.9146 1.89749 33.6158 1.89749 32.8154C1.89749 32.015 1.73741 31.7162 1.14692 31.7162H0.673814V33.9252L1.14692 33.9146Z" fill="#242424"/>
<path d="M4.33027 32.9364H3.19553V33.9146H4.45833V34.2277H2.82202V31.3926H4.42631V31.7056H3.19553V32.6305H4.33027V32.9364Z" fill="#242424"/>
<path d="M6.41517 34.2276H6.05945V31.3818H6.96653C7.63884 31.3818 7.90563 31.6202 7.90563 32.2925C7.90563 32.9683 7.63884 33.2031 6.96653 33.2031H6.41517V34.2276ZM6.41517 32.915H6.9523C7.34715 32.915 7.51434 32.7656 7.51434 32.3103C7.51434 31.8585 7.34715 31.7091 6.9523 31.7091H6.41517V32.915Z" fill="#242424"/>
<path d="M9.94393 32.9364H8.80563V33.9146H10.072V34.2277H8.43213V31.3926H10.0364V31.7056H8.80563V32.6305H9.94393V32.9364Z" fill="#242424"/>
<path d="M12.3266 31.3926V31.7056H11.5333V34.2277H11.1598V31.7056H10.3666V31.3926H12.3266Z" fill="#242424"/>
<path d="M13.1202 34.2276H12.7645V31.3818H13.7107C14.383 31.3818 14.6534 31.6202 14.6534 32.296C14.6534 32.8474 14.4506 33.0964 13.9953 33.1533L14.7067 34.2205H14.3083L13.6218 33.2031H13.1202V34.2276ZM13.7001 32.9257C14.0949 32.9257 14.2692 32.7656 14.2692 32.3138C14.2692 31.8621 14.0949 31.6984 13.7001 31.6984H13.1202V32.9114L13.7001 32.9257Z" fill="#242424"/>
<path d="M17.2359 32.8049C17.2359 33.7974 17.0296 34.2669 16.1687 34.2669C15.3079 34.2669 15.1016 33.7974 15.1016 32.8049C15.1016 31.8125 15.3043 31.3429 16.1687 31.3429C17.0331 31.3429 17.2359 31.8125 17.2359 32.8049ZM16.8517 32.8049C16.8517 32.0152 16.7485 31.6488 16.1616 31.6488C15.5747 31.6488 15.4715 32.0046 15.4715 32.8049C15.4715 33.5946 15.5747 33.961 16.1616 33.961C16.7485 33.961 16.8517 33.6053 16.8517 32.8049ZM15.8166 31.1615L15.7632 31.0335L16.4497 30.6777L16.5529 30.8947L15.8166 31.1615Z" fill="#242424"/>
<path d="M18.1539 33.9146H19.2673V34.2277H17.7804V31.3926H18.1539V33.9146Z" fill="#242424"/>
<path d="M21.2377 32.9364H20.103V33.9146H21.3694V34.2277H19.7295V31.3926H21.3338V31.7056H20.103V32.6305H21.2377V32.9364Z" fill="#242424"/>
<path d="M23.8982 32.8048C23.8982 33.7937 23.6955 34.2668 22.8311 34.2668C21.9667 34.2668 21.7639 33.7937 21.7639 32.8048C21.7639 31.8123 21.9667 31.3428 22.8311 31.3428C23.6955 31.3428 23.8982 31.8123 23.8982 32.8048ZM23.5141 32.8048C23.5141 32.0151 23.4109 31.6487 22.824 31.6487C22.237 31.6487 22.1339 32.0044 22.1339 32.8048C22.1339 33.5945 22.2406 33.9609 22.824 33.9609C23.4073 33.9609 23.5141 33.6051 23.5141 32.8048Z" fill="#242424"/>
<path d="M27.1389 32.9364H26.0041V33.9146H27.2669V34.2277H25.6306V31.3926H27.2349V31.7056H26.0041V32.6305H27.1389V32.9364Z" fill="#242424"/>
<path d="M29.2522 32.8045C29.2522 33.58 29.3803 33.9606 29.9992 33.9606C30.1748 33.9695 30.3497 33.934 30.5079 33.8574V32.9112H29.9708V32.648H30.8601V34.0389C30.6013 34.2004 30.3006 34.2821 29.9957 34.2736C29.1028 34.2736 28.868 33.8005 28.868 32.8116C28.868 31.8156 29.085 31.3496 30.0597 31.3496C30.3102 31.3486 30.5591 31.3895 30.796 31.4706L30.7534 31.7516C30.5528 31.6901 30.3442 31.6589 30.1344 31.6591C29.3589 31.6591 29.2522 32.0148 29.2522 32.8116" fill="#242424"/>
<path d="M32.8914 33.5226H31.8243L31.6251 34.234H31.2338L32.0661 31.3883H32.6353L33.4712 34.234H33.0942L32.8914 33.5226ZM31.9025 33.2167H32.8345L32.3934 31.6871H32.3401L31.9025 33.2167ZM32.027 31.1713L31.9737 31.0432L32.6602 30.6875L32.7634 30.9045L32.027 31.1713Z" fill="#242424"/>
<path d="M35.2996 33.4692C35.2996 33.1135 35.1751 33.0246 34.6202 32.9285C34.0653 32.8325 33.8127 32.6546 33.8127 32.121C33.8127 31.5981 34.0689 31.3633 34.7234 31.3633C35.0021 31.3614 35.2794 31.4034 35.5451 31.4879L35.5024 31.7653C35.2704 31.7027 35.0313 31.6704 34.791 31.6693C34.3534 31.6693 34.2005 31.7938 34.2005 32.1175C34.2005 32.4732 34.3499 32.5408 34.8621 32.6368C35.5166 32.7578 35.6909 32.9463 35.6909 33.4656C35.6909 34.0384 35.3566 34.2802 34.6558 34.2802C34.38 34.278 34.1058 34.2373 33.8412 34.1593L33.8839 33.8854C34.1239 33.9434 34.3698 33.9733 34.6167 33.9743C35.1004 33.9743 35.3281 33.8534 35.3281 33.4728" fill="#242424"/>
<path d="M1.91514 18.888C0.651807 17.5413 -0.034996 15.7541 0.00137421 13.908V1.37598H3.61192V13.9613C3.61192 16.0245 4.84271 17.2659 6.86675 17.2659C8.89079 17.2659 10.1465 16.0245 10.1465 13.9613V1.37598H13.7535V13.9044C13.7914 15.7508 13.1043 17.5386 11.8397 18.8845C10.4847 20.1248 8.71437 20.8127 6.87742 20.8127C5.04047 20.8127 3.27011 20.1248 1.91514 18.8845" fill="#242424"/>
<path d="M23.0058 5.94789C26.9436 5.94789 29.2665 8.56243 29.2665 12.2832V20.4861H25.6595V12.1979C25.6595 11.4011 25.3856 9.50152 23.0058 9.50152C22.6453 9.48353 22.285 9.54068 21.9478 9.66934C21.6106 9.798 21.3038 9.99537 21.0469 10.2489C20.79 10.5025 20.5886 10.8066 20.4555 11.1422C20.3225 11.4777 20.2606 11.8372 20.2739 12.1979V20.4861H16.6633V12.2797C16.6633 8.6727 19.1783 5.94434 23.0058 5.94434" fill="#242424"/>
<path d="M32.5179 4.76322V2.72495C32.5179 2.24286 32.7095 1.78052 33.0503 1.43963C33.3912 1.09874 33.8536 0.907227 34.3357 0.907227C34.8178 0.907227 35.2801 1.09874 35.621 1.43963C35.9619 1.78052 36.1534 2.24286 36.1534 2.72495V4.76322H32.5179Z" fill="#242424"/>
<path d="M36.153 6.30664H32.546V20.4856H36.153V6.30664Z" fill="#242424"/>
<path d="M46.7355 6.30689C50.6697 6.30689 53.5973 9.50836 53.5973 13.464C53.5973 17.4196 50.6413 20.8167 46.3798 20.8167C42.1183 20.8167 39.1622 17.4587 39.1622 13.3466V0H42.7692V13.3466C42.7692 15.5236 44.3842 17.2844 46.3798 17.2844C48.3754 17.2844 49.9868 15.5769 49.9868 13.4568C49.995 12.9711 49.9051 12.4888 49.7224 12.0387C49.5397 11.5886 49.2679 11.18 48.9234 10.8375C48.5789 10.495 48.1688 10.2256 47.7176 10.0455C47.2665 9.86541 46.7836 9.77829 46.298 9.78938H44.2206V6.30689H46.7355Z" fill="#242424"/>
<path d="M60.6233 16.9613H62.7007C63.1827 16.9757 63.6626 16.8926 64.1118 16.717C64.5609 16.5414 64.97 16.277 65.3144 15.9395C65.6589 15.602 65.9316 15.1985 66.1164 14.753C66.3011 14.3076 66.394 13.8294 66.3895 13.3472C66.3895 11.2129 64.7781 9.4912 62.7825 9.4912C60.7869 9.4912 59.1719 11.2698 59.1719 13.4575V26.7934H55.5649V13.4397C55.5649 9.30623 58.5423 5.94824 62.7825 5.94824C67.0226 5.94824 70 9.30623 70 13.3294C70 17.2921 67.0724 20.4865 63.1382 20.4865H60.6233V16.9613Z" fill="#242424"/>
</svg>
